<svg viewBox="0 0 64 64" xmlns="http://www.w3.org/2000/svg" shape-rendering="crispEdges">
  <title>Block</title>
  <!-- An original isometric grass-and-dirt block, not a Mojang asset. -->
  <!-- top -->
  <polygon points="32,6 58,19 32,32 6,19" fill="#7bbf45"/>
  <polygon points="32,10 40,14 32,18 24,14" fill="#8fd154"/>
  <polygon points="44,17 50,20 44,23 38,20" fill="#6aa83a"/>
  <polygon points="20,17 26,20 20,23 14,20" fill="#8fd154"/>
  <!-- left side: dirt with a grass edge -->
  <polygon points="6,19 32,32 32,58 6,45" fill="#8a5a33"/>
  <polygon points="6,19 32,32 32,38 6,25" fill="#5f9a34"/>
  <polygon points="6,25 12,28 12,31 6,28" fill="#5f9a34"/>
  <polygon points="20,32 26,35 26,38 20,35" fill="#5f9a34"/>
  <polygon points="10,36 15,38.5 15,42.5 10,40" fill="#744a29"/>
  <polygon points="21,44 26,46.5 26,50.5 21,48" fill="#744a29"/>
  <!-- right side: in shadow -->
  <polygon points="32,32 58,19 58,45 32,58" fill="#6e4726"/>
  <polygon points="32,32 58,19 58,25 32,38" fill="#4d812b"/>
  <polygon points="46,31 52,28 52,31 46,34" fill="#4d812b"/>
  <polygon points="38,44 43,41.5 43,45.5 38,48" fill="#5c3b1f"/>
  <polygon points="49,37 54,34.5 54,38.5 49,41" fill="#5c3b1f"/>
</svg>
